<svg width="166" height="177" viewBox="0 0 166 177" fill="none" xmlns="http://www.w3.org/2000/svg">
<path d="M13.121 137.811L82.831 176.125L152.9 137.292L165.962 28.96L82.743 0.375L0.0539856 29.475L13.121 137.811Z" fill="#B3B3B3"/>
<path d="M82.55 166.971L145.541 132.109L157.714 35.221L82.55 9.58899V166.971Z" fill="#A6120D"/>
<path d="M82.549 166.971V9.586L9.33298 35.683L20.53 132.572L82.549 166.971Z" fill="#DD1B16"/>
<path d="M103.24 93.371L82.55 103.046H60.743L50.492 128.686L31.425 129.039L82.55 15.304L103.24 93.371ZM101.24 88.5L82.687 51.771L67.469 87.868H82.549L101.24 88.5Z" fill="#F2F2F2"/>
<path d="M99.954 87.896H82.588L82.549 103.023L106.562 103.046L117.785 129.043L136.029 129.381L82.549 15.304L82.686 51.771L99.954 87.896Z" fill="#B3B3B3"/>
</svg>
