<svg width="800" height="320" viewBox="0 0 800 320" fill="none" xmlns="http://www.w3.org/2000/svg">
    <path
        d="M640.729 0.625C609.329 0.625 580.084 9.75217 555.412 25.4338L399.995 139.578L318.078 79.4241C313.142 87.4331 308.169 95.3966 303.415 103.642C302.269 105.624 301.206 107.633 300.078 109.615L368.55 159.896L224.87 265.404C205.179 277.676 182.525 284.167 159.262 284.167C90.7444 284.167 34.9905 228.422 34.9905 159.896C34.9905 91.3694 90.7353 35.6246 159.262 35.6246C182.525 35.6246 205.189 42.1063 224.87 54.388L239.152 64.8697C245.052 54.6698 251.17 44.7063 257.343 34.8155L244.579 25.4429C219.916 9.75217 190.661 0.634091 159.262 0.634091C71.3083 0.634091 0 71.9424 0 159.896C0 247.849 71.2992 319.158 159.262 319.158C190.661 319.158 219.916 310.031 244.579 294.349L399.995 180.214L482.231 240.604C487.267 232.35 492.294 224.068 497.267 215.441C498.249 213.732 499.14 212.032 500.112 210.323L431.45 159.896L575.121 54.388C594.811 42.1154 617.475 35.6246 640.729 35.6246C709.256 35.6246 765 91.3694 765 159.896C765 228.422 709.256 284.167 640.729 284.167C617.466 284.167 594.811 277.685 575.121 265.404L561.048 255.068C555.085 265.367 549.048 275.376 542.985 285.213L555.421 294.34C580.093 310.031 609.339 319.149 640.738 319.149C728.692 319.149 800 247.84 800 159.887C799.991 71.9333 728.692 0.625 640.729 0.625Z"
        fill="#44B74A" />
</svg>