<svg width="111" height="83" viewBox="0 0 111 83" fill="none" xmlns="http://www.w3.org/2000/svg">
<path d="M36.6618 46.8981C32.5378 48.0681 29.8328 50.1201 28.0508 52.1701C29.7578 50.6761 32.0438 49.3051 35.1278 48.4311C38.2828 47.5371 40.9738 47.5431 43.1968 47.9721V46.2331C41.2998 46.0601 39.1248 46.1981 36.6608 46.8971L36.6618 46.8981ZM27.8628 32.2801L12.5488 36.3151C12.5488 36.3151 12.8278 36.7091 13.3448 37.2351L26.3288 33.8141C26.3288 33.8141 26.1448 36.1851 24.5468 38.3061C27.5688 36.0191 27.8628 32.2801 27.8628 32.2801ZM40.6818 68.2711C19.1308 74.0761 7.7288 49.1001 4.2768 36.1371C2.6818 30.1531 1.9858 25.6211 1.7998 22.6971C1.78222 22.4326 1.7859 22.1671 1.8108 21.9031C0.692803 21.9711 0.157803 22.5521 0.266803 24.2311C0.452803 27.1541 1.1488 31.6851 2.7438 37.6711C6.1938 50.6321 17.5978 75.6081 39.1488 69.8031C43.8398 68.5391 47.3638 66.2381 50.0088 63.2991C47.5708 65.5011 44.5188 67.2361 40.6818 68.2711ZM44.7318 16.9951V18.5291H53.1848C53.0118 17.9861 52.8368 17.4971 52.6628 16.9951H44.7318Z" fill="#2D4552"/>
<path d="M55.0742 29.6267C58.8762 30.7067 60.8862 33.3717 61.9492 35.7307L66.1882 36.9347C66.1882 36.9347 65.6102 28.6797 58.1432 26.5587C51.1582 24.5737 46.8592 30.4397 46.3362 31.1987C48.3682 29.7507 51.3352 28.5657 55.0742 29.6267ZM88.8152 35.7687C81.8232 33.7747 77.5262 39.6527 77.0112 40.4017C79.0452 38.9557 82.0102 37.7697 85.7482 38.8357C89.5442 39.9167 91.5522 42.5787 92.6182 44.9397L96.8632 46.1477C96.8632 46.1477 96.2752 37.8907 88.8152 35.7687ZM84.6042 57.5347L49.3432 47.6767C49.3432 47.6767 49.7252 49.6117 51.1892 52.1177L80.8772 60.4177C83.3212 59.0037 84.6042 57.5347 84.6042 57.5347ZM60.1582 78.7527C32.2382 71.2677 35.6142 35.6937 40.1312 18.8367C41.9912 11.8897 43.9032 6.7267 45.4892 3.2647C44.5432 3.0697 43.7592 3.5687 42.9852 5.1427C41.3012 8.5577 39.1482 14.1187 37.0642 21.9027C32.5482 38.7597 29.1722 74.3317 57.0912 81.8167C70.2502 85.3417 80.5022 79.9837 88.1442 71.5697C80.8902 78.1397 71.6292 81.8237 60.1582 78.7527Z" fill="#2D4552"/>
<path d="M44.7319 59.9349V52.7559L24.7869 58.4119C24.7869 58.4119 26.2609 49.8489 36.6629 46.8979C39.8179 46.0039 42.5089 46.0099 44.7319 46.4389V16.9949H54.7189C53.6319 13.6349 52.5799 11.0479 51.6959 9.25093C50.2349 6.27593 48.7359 8.24793 45.3349 11.0929C42.9389 13.0939 36.8849 17.3639 27.7739 19.8189C18.6629 22.2759 11.2979 21.6239 8.2239 21.0919C3.8669 20.3399 1.5879 19.3839 1.8019 22.6969C1.9879 25.6199 2.6839 30.1519 4.2789 36.1369C7.7289 49.0989 19.1329 74.0739 40.6839 68.2689C46.3129 66.7519 50.2869 63.7539 53.0409 59.9329H44.7319V59.9349ZM12.5469 36.3149L27.8629 32.2799C27.8629 32.2799 27.4169 38.1719 21.6749 39.6849C15.9319 41.1969 12.5469 36.3149 12.5469 36.3149Z" fill="#E2574C"/>
<path d="M102.372 17.3361C98.3911 18.0341 88.8401 18.9031 77.0361 15.7401C65.2291 12.5781 57.3961 7.04812 54.2921 4.44812C49.8921 0.763121 47.9571 -1.79788 46.0521 2.07612C44.3681 5.49312 42.2151 11.0531 40.1311 18.8381C35.6151 35.6951 32.2391 71.2671 60.1581 78.7521C88.0701 86.2311 102.93 53.7351 107.447 36.8771C109.531 29.0941 110.445 23.2011 110.697 19.4011C110.984 15.0961 108.027 16.3461 102.373 17.3371L102.372 17.3361ZM46.2801 31.2821C46.2801 31.2821 50.6801 24.4391 58.1421 26.5601C65.6091 28.6811 66.1871 36.9361 66.1871 36.9361L46.2801 31.2821ZM64.4951 61.9881C51.3701 58.1431 49.3451 47.6771 49.3451 47.6771L84.6041 57.5351C84.6041 57.5331 77.4871 65.7851 64.4951 61.9881ZM76.9611 40.4781C76.9611 40.4781 81.3551 33.6401 88.8151 35.7671C96.2751 37.8911 96.8631 46.1461 96.8631 46.1461L76.9611 40.4781Z" fill="#2EAD33"/>
<path d="M37.7619 54.733L24.7869 58.41C24.7869 58.41 26.1969 50.381 35.7549 47.198L28.4079 19.625L27.7729 19.818C18.6619 22.275 11.2969 21.623 8.22292 21.091C3.86592 20.34 1.58692 19.383 1.80092 22.697C1.98692 25.62 2.68292 30.151 4.27792 36.137C7.72792 49.098 19.1319 74.074 40.6829 68.269L41.3179 68.07L37.7619 54.733ZM12.5479 36.315L27.8639 32.28C27.8639 32.28 27.4179 38.172 21.6759 39.685C15.9329 41.197 12.5479 36.315 12.5479 36.315Z" fill="#D65348"/>
<path d="M65.0861 62.1321L64.4921 61.9881C51.3671 58.1441 49.3421 47.6771 49.3421 47.6771L67.5241 52.7591L77.1501 15.7701L77.0341 15.7391C65.2271 12.5771 57.3941 7.04714 54.2901 4.44714C49.8901 0.762144 47.9551 -1.79886 46.0501 2.07514C44.3681 5.49214 42.2141 11.0521 40.1301 18.8371C35.6141 35.6941 32.2381 71.2661 60.1571 78.7511L60.7291 78.8801L65.0861 62.1321ZM46.2791 31.2821C46.2791 31.2821 50.6791 24.4391 58.1411 26.5601C65.6081 28.6811 66.1861 36.9361 66.1861 36.9361L46.2791 31.2821Z" fill="#1D8D22"/>
<path d="M38.4232 54.5441L34.9432 55.5321C35.7652 60.1661 37.2142 64.6141 39.4882 68.5431C39.8842 68.4561 40.2762 68.3801 40.6802 68.2701C41.6938 67.9915 42.6891 67.6499 43.6602 67.2471C41.1192 63.4761 39.4382 59.1321 38.4232 54.5441ZM37.0642 21.9041C35.2762 28.5781 33.6762 38.1841 34.1162 47.8191C34.9431 47.4544 35.7937 47.1461 36.6622 46.8961L37.3062 46.7521C36.5212 36.4601 38.2182 25.9721 40.1312 18.8371C40.5844 17.1448 41.0695 15.4612 41.5862 13.7871C40.744 14.3255 39.8842 14.8358 39.0082 15.3171C38.3032 17.4956 37.655 19.692 37.0642 21.9041Z" fill="#C04B41"/>
</svg>
