<svg width="120" height="124" viewBox="0 0 120 124" fill="none" xmlns="http://www.w3.org/2000/svg">
<path d="M89.809 90.112C90.594 83.579 90.359 82.62 95.225 83.679L96.46 83.787C100.202 83.957 105.097 83.185 107.973 81.849C114.164 78.976 117.834 74.181 111.731 75.44C97.807 78.313 96.85 73.598 96.85 73.598C111.553 51.783 117.699 24.09 112.393 17.311C97.923 -1.17802 72.876 7.56498 72.457 7.79098L72.323 7.81598C69.572 7.24498 66.493 6.90397 63.034 6.84797C56.733 6.74397 51.952 8.49998 48.325 11.25C48.325 11.25 3.642 -7.15903 5.721 34.401C6.163 43.242 18.393 101.299 32.981 83.763C38.313 77.351 43.465 71.929 43.465 71.929C46.023 73.628 49.087 74.496 52.299 74.184L52.548 73.972C52.47 74.768 52.504 75.547 52.647 76.469C48.89 80.668 49.994 81.405 42.481 82.951C34.879 84.517 39.345 87.306 42.26 88.035C45.795 88.919 53.972 90.171 59.498 82.437L59.278 83.319C60.752 84.499 60.653 91.796 60.861 97.009C61.07 102.223 61.419 107.088 62.482 109.957C63.545 112.825 64.799 120.213 74.673 118.097C82.925 116.333 89.234 113.788 89.809 90.112Z" fill="black"/>
<path d="M71.458 123.256C67.091 123.256 64.247 121.567 62.52 119.936C59.913 117.476 58.879 114.307 58.261 112.414L57.994 111.624C56.75 108.266 56.328 103.431 56.078 97.2051C56.04 96.2701 56.014 95.3071 55.985 94.2861C55.964 93.5391 55.938 92.6021 55.9 91.6221C54.3267 92.3722 52.6567 92.8999 50.938 93.1901C47.859 93.7161 44.549 93.5461 41.098 92.6831C38.663 92.0741 36.133 90.8121 34.691 88.8631C30.488 92.5441 26.479 92.0451 24.295 91.3161C20.442 90.0311 16.994 86.4201 13.753 80.2791C11.444 75.9041 9.21102 70.2041 7.11502 63.3361C3.46502 51.3761 1.14602 38.7791 0.940016 34.6431C0.292016 21.6981 3.77701 12.4401 11.296 7.12906C23.157 -1.24894 41.128 3.67806 47.68 5.91506C52.082 3.26206 57.261 1.97106 63.113 2.06406C66.256 2.11506 69.249 2.39106 72.029 2.88706C74.929 1.97506 80.657 0.666057 87.214 0.748057C99.295 0.892057 109.306 5.60006 116.163 14.3631C121.057 20.6151 118.637 33.7441 116.76 41.0141C114.118 51.2401 109.489 62.1161 103.803 71.5841C105.347 71.5951 107.584 71.4101 110.764 70.7531C117.038 69.4581 118.873 72.8221 119.371 74.3281C121.366 80.3701 112.694 84.9361 109.989 86.1921C106.523 87.8011 100.872 88.7811 96.244 88.5691L96.042 88.5561L94.826 88.4491L94.706 89.4631L94.59 90.4541C94.279 102.453 92.565 110.052 89.038 115.073C85.341 120.337 80.203 121.812 75.677 122.782C74.133 123.112 72.73 123.256 71.458 123.256ZM62.268 79.5851C65.087 81.8411 65.334 86.0861 65.555 94.0191C65.583 95.0091 65.609 95.9461 65.644 96.8211C65.75 99.4711 65.999 105.676 66.971 108.298C67.108 108.669 67.231 109.045 67.361 109.444C68.444 112.76 68.987 114.423 73.67 113.422C77.601 112.579 79.622 111.823 81.204 109.571C83.503 106.297 84.789 99.7111 85.025 89.9961L89.808 90.1121L85.058 89.5421L85.198 88.3561C85.653 84.4461 85.981 81.6221 88.594 79.7541C90.691 78.2561 93.08 78.4011 94.983 78.7441C92.892 77.1641 92.314 75.3111 92.16 74.5511L91.761 72.5861L92.882 70.9231C99.339 61.3431 104.663 49.5691 107.491 38.6191C110.397 27.3681 109.511 21.3931 108.625 20.2631C96.896 5.27606 76.557 11.4641 74.433 12.1661L74.074 12.3601L72.274 12.6951L71.352 12.5041C68.81 11.9761 65.986 11.6841 62.959 11.6351C58.203 11.5551 54.366 12.6791 51.22 15.0661L49.037 16.7211L46.504 15.6781C41.092 13.4651 25.196 9.01606 16.808 14.9571C12.152 18.2551 10.031 24.7171 10.503 34.1641C10.659 37.2831 12.778 49.0901 16.274 60.5411C21.105 76.3661 25.495 81.6231 27.328 82.2341C27.648 82.3421 28.478 81.6971 29.304 80.7051C32.748 76.5764 36.3143 72.5513 39.998 68.6351L42.768 65.7201L46.117 67.9451C47.467 68.8421 48.956 69.3511 50.485 69.4471L58.472 62.6351L57.315 74.4431C57.289 74.7081 57.276 75.0691 57.38 75.7391L57.728 77.9771L56.218 79.6651L56.044 79.8611L60.432 81.8861L62.268 79.5851Z" fill="black"/>
<path d="M111.731 75.4401C97.806 78.3131 96.849 73.5981 96.849 73.5981C111.552 51.7821 117.698 24.0881 112.394 17.3111C97.924 -1.17694 72.875 7.56606 72.457 7.79306L72.322 7.81706C69.571 7.24606 66.492 6.90606 63.031 6.85006C56.73 6.74706 51.951 8.50206 48.324 11.2521C48.324 11.2521 3.64 -7.15594 5.718 34.4031C6.16 43.2451 18.39 101.302 32.978 83.7661C38.31 77.3541 43.461 71.9321 43.461 71.9321C46.02 73.6311 49.083 74.4991 52.294 74.1871L52.544 73.9751C52.466 74.7711 52.502 75.5501 52.644 76.4721C48.886 80.6711 49.99 81.4081 42.477 82.9541C34.875 84.5201 39.341 87.3091 42.257 88.0381C45.791 88.9221 53.969 90.1741 59.494 82.4401L59.273 83.3221C60.746 84.5021 61.78 90.9941 61.607 96.8791C61.433 102.764 61.317 106.805 62.478 109.961C63.638 113.117 64.794 120.217 74.67 118.101C82.922 116.333 87.198 111.75 87.794 104.106C88.216 98.6711 89.171 99.4751 89.232 94.6161L89.999 92.3161C90.883 84.9491 90.139 82.5731 95.224 83.6781L96.459 83.7861C100.201 83.9561 105.098 83.1841 107.973 81.8481C114.163 78.9771 117.834 74.1811 111.731 75.4401Z" fill="#336791"/>
<path d="M71.957 120.307C63.725 120.307 61.117 113.788 60.05 111.122C58.488 107.215 58.151 92.053 58.499 79.619C58.5041 79.4093 58.5507 79.2027 58.6361 79.0111C58.7215 78.8195 58.8439 78.6467 58.9963 78.5026C59.1488 78.3585 59.3282 78.2461 59.5243 78.1716C59.7204 78.0972 59.9293 78.0623 60.139 78.069C60.3484 78.0747 60.5547 78.1216 60.7459 78.2071C60.9372 78.2926 61.1098 78.4149 61.2537 78.5671C61.3977 78.7194 61.5102 78.8985 61.5849 79.0942C61.6596 79.29 61.695 79.4985 61.689 79.708C61.288 94.049 61.857 107.045 63.013 109.937C64.817 114.446 67.553 118.39 75.288 116.733C82.631 115.158 85.381 112.374 86.606 105.273C87.546 99.824 89.405 84.322 89.634 81.263C89.6493 81.0539 89.7057 80.85 89.8 80.6628C89.8943 80.4756 90.0246 80.3088 90.1834 80.1721C90.3423 80.0353 90.5266 79.9313 90.7257 79.8659C90.9249 79.8005 91.135 79.775 91.344 79.791C91.7658 79.8229 92.1577 80.0209 92.4336 80.3415C92.7096 80.6621 92.8471 81.0791 92.816 81.501C92.577 84.686 90.727 100.158 89.751 105.816C88.305 114.203 84.566 118.007 75.957 119.853C74.494 120.166 73.165 120.306 71.957 120.307ZM27.321 88.466C26.6014 88.4635 25.887 88.3453 25.205 88.116C19.858 86.332 14.765 77.624 10.067 62.231C6.49096 50.514 4.22496 38.284 4.02596 34.309C3.43696 22.525 6.47096 14.188 13.046 9.53097C26.053 0.314975 47.934 9.09097 48.859 9.46897C49.2508 9.62903 49.563 9.9382 49.727 10.3285C49.8909 10.7187 49.893 11.1581 49.733 11.55C49.5729 11.9418 49.2637 12.2541 48.8735 12.418C48.4832 12.5819 48.0438 12.584 47.652 12.424C47.441 12.338 26.459 3.93197 14.884 12.139C9.26196 16.125 6.68096 23.531 7.21196 34.15C7.37896 37.499 9.49596 49.435 13.118 61.299C17.312 75.041 22.085 83.712 26.214 85.089C26.862 85.305 28.834 85.962 31.653 82.572C34.9404 78.6238 38.3511 74.7799 41.88 71.046C42.1752 70.7515 42.5741 70.5842 42.9911 70.58C43.4081 70.5759 43.8102 70.7351 44.1113 71.0237C44.4124 71.3122 44.5886 71.7072 44.6022 72.124C44.6158 72.5409 44.4657 72.9464 44.184 73.254C44.136 73.304 39.337 78.321 34.107 84.613C31.63 87.592 29.256 88.466 27.321 88.466ZM96.75 75.021C96.4607 75.0206 96.177 74.9416 95.9291 74.7924C95.6812 74.6433 95.4786 74.4295 95.3428 74.1741C95.207 73.9187 95.1432 73.6311 95.1582 73.3422C95.1732 73.0534 95.2665 72.774 95.428 72.534C110.291 50.479 115.508 23.83 111.04 18.12C105.416 10.934 97.475 7.18097 87.436 6.96397C80.003 6.80397 74.095 8.70197 73.129 9.03297L72.886 9.13197C71.915 9.43697 71.17 8.90497 70.889 8.28297C70.7287 7.92661 70.7045 7.52393 70.8207 7.15089C70.9369 6.77786 71.1857 6.46025 71.52 6.25797C71.566 6.23097 71.712 6.16897 71.949 6.08197C73.59 5.48097 79.588 3.68097 87.017 3.76597C98.125 3.88397 107.301 8.16697 113.551 16.154C116.508 19.933 116.515 28.639 113.57 40.041C110.568 51.666 104.919 64.159 98.073 74.318C97.767 74.775 97.263 75.021 96.75 75.021ZM97.51 85.231C94.972 85.231 92.697 84.873 91.335 84.057C89.935 83.218 89.668 82.078 89.633 81.473C89.251 74.763 92.953 73.595 94.841 73.062C94.578 72.664 94.204 72.196 93.817 71.713C92.716 70.337 91.208 68.453 90.046 65.635C89.864 65.195 89.294 64.172 88.634 62.987C85.055 56.569 77.608 43.214 82.392 36.375C84.606 33.21 89.015 31.964 95.511 32.659C93.6 26.837 84.5 8.62497 62.907 8.27097C56.413 8.16297 51.087 10.16 47.085 14.201C38.125 23.25 38.449 39.623 38.454 39.787C38.4595 39.9964 38.4237 40.2049 38.3486 40.4006C38.2736 40.5962 38.1607 40.7751 38.0165 40.9271C37.8723 41.0791 37.6995 41.2012 37.5081 41.2865C37.3167 41.3717 37.1104 41.4185 36.901 41.424C36.6915 41.4295 36.483 41.3937 36.2874 41.3186C36.0918 41.2436 35.9128 41.1307 35.7608 40.9865C35.6088 40.8423 35.4867 40.6696 35.4014 40.4782C35.3162 40.2868 35.2695 40.0804 35.264 39.871C35.244 39.144 34.91 21.962 44.818 11.955C49.455 7.27197 55.559 4.95997 62.96 5.08097C76.774 5.30797 85.666 12.331 90.692 18.182C96.171 24.559 98.857 31.593 99.078 33.941C99.243 35.687 97.99 36.036 97.737 36.088L97.161 36.101C90.786 35.08 86.696 35.789 85.005 38.205C81.366 43.406 88.411 56.039 91.419 61.434C92.187 62.81 92.741 63.805 92.995 64.419C93.983 66.815 95.272 68.425 96.307 69.719C97.218 70.857 98.007 71.844 98.289 73.002C98.42 73.232 100.279 75.982 111.31 73.705C114.075 73.135 115.733 73.622 116.24 75.155C117.237 78.17 111.643 81.687 108.546 83.125C105.771 84.415 101.342 85.231 97.51 85.231ZM92.814 81.21C93.164 81.563 94.915 82.172 98.541 82.016C101.765 81.878 105.165 81.177 107.205 80.23C109.814 79.018 111.556 77.663 112.458 76.738L111.958 76.83C104.905 78.286 99.916 78.092 97.13 76.253C96.9428 76.1292 96.7625 75.9954 96.59 75.852C96.288 75.971 96.009 76.049 95.81 76.105C94.23 76.548 92.596 77.007 92.814 81.21ZM47.252 90.125C45.5 90.125 43.656 89.886 41.773 89.415C39.822 88.927 36.533 87.458 36.583 85.045C36.64 82.338 40.577 81.526 42.059 81.221C47.413 80.118 47.762 79.676 49.435 77.551C49.923 76.932 50.53 76.161 51.358 75.237C52.587 73.861 53.93 73.164 55.35 73.164C56.339 73.164 57.15 73.499 57.686 73.722C59.394 74.43 60.819 76.142 61.405 78.189C61.934 80.036 61.681 81.814 60.695 83.195C57.458 87.728 52.809 90.125 47.252 90.125ZM40.03 85.182C40.511 85.554 41.475 86.051 42.548 86.319C44.179 86.727 45.761 86.934 47.253 86.934C51.799 86.934 55.449 85.052 58.1 81.34C58.653 80.566 58.487 79.583 58.339 79.066C58.029 77.983 57.259 76.998 56.466 76.669C56.036 76.491 55.679 76.355 55.351 76.355C55.175 76.355 54.639 76.355 53.737 77.364C53.1145 78.064 52.5162 78.7851 51.943 79.526C49.859 82.172 48.904 83.07 42.704 84.347C41.191 84.657 40.415 84.973 40.03 85.182ZM52.299 77.822C51.9181 77.8214 51.5499 77.6845 51.2611 77.4362C50.9722 77.1879 50.7817 76.8445 50.724 76.468C50.6843 76.2031 50.6576 75.9365 50.644 75.669C46.58 75.593 42.659 73.849 39.682 70.743C35.918 66.816 34.205 61.375 34.983 55.816C35.828 49.779 35.512 44.45 35.342 41.587C35.295 40.791 35.261 40.216 35.263 39.818C35.266 39.313 35.276 37.974 39.752 35.705C41.344 34.898 44.536 33.49 48.023 33.129C53.8 32.532 57.608 35.105 58.748 40.375C61.825 54.603 58.992 60.896 56.923 65.492C56.538 66.348 56.174 67.156 55.883 67.939L55.626 68.629C54.533 71.56 53.588 74.092 53.878 75.983C53.9098 76.1901 53.9005 76.4014 53.8507 76.6049C53.8008 76.8085 53.7113 77.0002 53.5873 77.1691C53.4634 77.338 53.3073 77.4808 53.1281 77.5894C52.9489 77.698 52.7501 77.7703 52.543 77.802L52.299 77.822ZM38.464 40.26L38.526 41.399C38.702 44.373 39.03 49.907 38.142 56.259C37.501 60.844 38.901 65.319 41.985 68.535C44.422 71.077 47.629 72.48 50.925 72.48H50.993C51.362 70.925 51.975 69.283 52.635 67.514L52.89 66.828C53.219 65.944 53.604 65.088 54.012 64.182C56.003 59.758 58.482 54.251 55.627 41.05C55.062 38.435 53.691 36.922 51.438 36.423C46.81 35.401 39.913 38.882 38.464 40.26ZM48.094 39.583C48.014 40.147 49.127 41.653 50.579 41.854C52.028 42.057 53.268 40.879 53.347 40.315C53.426 39.751 52.314 39.129 50.862 38.927C49.411 38.725 48.171 39.019 48.094 39.583ZM50.912 42.409L50.505 42.381C49.605 42.256 48.695 41.689 48.072 40.863C47.853 40.573 47.496 40.011 47.567 39.509C47.668 38.773 48.566 38.332 49.967 38.332C50.28 38.332 50.606 38.355 50.934 38.401C51.7 38.507 52.411 38.728 52.936 39.021C53.846 39.529 53.913 40.096 53.872 40.389C53.76 41.202 52.467 42.409 50.912 42.409ZM48.623 39.677C48.668 40.025 49.53 41.173 50.652 41.328L50.913 41.346C51.949 41.346 52.723 40.531 52.814 40.264C52.718 40.082 52.052 39.63 50.789 39.454C50.517 39.415 50.2427 39.3952 49.968 39.395C49.156 39.395 48.725 39.578 48.623 39.677ZM92.228 38.432C92.307 38.996 91.195 40.502 89.744 40.704C88.294 40.906 87.053 39.729 86.973 39.165C86.897 38.601 88.009 37.978 89.459 37.777C90.909 37.574 92.148 37.869 92.228 38.432ZM89.409 40.992C88.013 40.992 86.808 39.906 86.709 39.201C86.594 38.355 87.987 37.712 89.421 37.513C89.737 37.469 90.05 37.447 90.351 37.447C91.589 37.447 92.409 37.81 92.491 38.396C92.544 38.775 92.253 39.36 91.752 39.888C91.421 40.235 90.726 40.836 89.779 40.967L89.409 40.992ZM90.352 37.979C90.076 37.979 89.788 38 89.496 38.04C88.055 38.241 87.195 38.819 87.237 39.129C87.285 39.47 88.205 40.461 89.41 40.461L89.707 40.44C90.494 40.331 91.085 39.817 91.367 39.521C91.81 39.056 91.986 38.618 91.965 38.469C91.937 38.271 91.405 37.979 90.352 37.979ZM94.317 70.822C94.0279 70.8221 93.7442 70.7437 93.4963 70.595C93.2483 70.4464 93.0455 70.2331 92.9095 69.978C92.7735 69.7229 92.7094 69.4356 92.7241 69.1469C92.7388 68.8582 92.8317 68.5789 92.993 68.339C96.391 63.264 95.769 58.089 95.168 53.084C94.911 50.952 94.647 48.747 94.715 46.631C94.785 44.454 95.062 42.658 95.329 40.921C95.646 38.863 95.946 36.919 95.822 34.611C95.8107 34.4018 95.8407 34.1924 95.9103 33.9948C95.9799 33.7972 96.0878 33.6153 96.2277 33.4594C96.3677 33.3035 96.5369 33.1766 96.7259 33.0861C96.9148 32.9957 97.1198 32.9433 97.329 32.932C97.5382 32.9207 97.7475 32.9507 97.9451 33.0203C98.1427 33.0899 98.3247 33.1978 98.4806 33.3377C98.6365 33.4777 98.7633 33.647 98.8538 33.8359C98.9443 34.0249 98.9967 34.2298 99.008 34.439C99.15 37.077 98.811 39.277 98.483 41.406C98.23 43.049 97.968 44.748 97.905 46.733C97.844 48.607 98.083 50.597 98.336 52.703C98.976 58.025 99.701 64.057 95.645 70.114C95.4989 70.3321 95.3013 70.5108 95.0696 70.6343C94.838 70.7578 94.5795 70.8223 94.317 70.822Z" fill="white"/>
</svg>
