<svg width="57" height="57" viewBox="0 0 57 57" fill="none" xmlns="http://www.w3.org/2000/svg">
<path d="M28.072 56.144C43.5757 56.144 56.144 43.5757 56.144 28.072C56.144 12.5683 43.5757 0 28.072 0C12.5683 0 0 12.5683 0 28.072C0 43.5757 12.5683 56.144 28.072 56.144Z" fill="black"/>
<path d="M40.345 10.387C37.494 10.487 35.003 12.059 33.152 14.233C31.099 16.617 29.735 19.446 28.751 22.332C26.992 20.89 25.635 19.024 22.813 18.21C20.63 17.583 18.34 17.841 16.233 19.411C15.234 20.157 14.547 21.284 14.22 22.343C13.372 25.097 15.109 27.548 15.899 28.429L17.624 30.275C17.98 30.638 18.835 31.584 18.418 32.939C17.965 34.414 16.189 35.367 14.366 34.806C13.552 34.554 12.382 33.949 12.645 33.097C12.753 32.747 13.003 32.484 13.138 32.185C13.261 31.925 13.319 31.731 13.356 31.617C13.689 30.529 13.234 29.115 12.07 28.756C10.983 28.424 9.87299 28.688 9.44199 30.085C8.95199 31.676 9.71299 34.557 13.786 35.814C18.558 37.281 22.595 34.681 23.167 31.293C23.528 29.171 22.568 27.593 20.813 25.564L19.383 23.983C18.516 23.116 18.219 21.641 19.115 20.508C19.872 19.551 20.949 19.143 22.716 19.622C25.293 20.32 26.442 22.109 28.358 23.552C27.567 26.147 27.049 28.752 26.582 31.09L26.295 32.83C24.924 40.016 23.879 43.961 21.161 46.226C20.614 46.617 19.83 47.199 18.651 47.24C18.032 47.26 17.833 46.834 17.823 46.648C17.809 46.214 18.176 46.015 18.419 45.82C18.782 45.621 19.331 45.293 19.294 44.242C19.253 42.996 18.223 41.918 16.735 41.969C15.618 42.006 13.919 43.055 13.983 44.979C14.049 46.963 15.899 48.452 18.689 48.356C20.181 48.307 23.511 47.7 26.792 43.799C30.611 39.326 31.68 34.199 32.484 30.447L33.38 25.494C33.879 25.553 34.411 25.594 34.991 25.607C39.748 25.709 42.127 23.244 42.164 21.452C42.187 20.367 41.452 19.3 40.422 19.324C39.686 19.345 38.76 19.835 38.538 20.853C38.321 21.853 40.052 22.755 38.699 23.632C37.738 24.255 36.015 24.693 33.589 24.337L34.031 21.898C34.93 17.274 36.042 11.586 40.255 11.449C40.562 11.433 41.686 11.463 41.712 12.205C41.719 12.453 41.658 12.517 41.368 13.085C41.071 13.527 40.96 13.904 40.973 14.338C41.015 15.518 41.912 16.294 43.211 16.248C44.948 16.191 45.448 14.5 45.42 13.63C45.348 11.585 43.194 10.295 40.345 10.387Z" fill="white"/>
</svg>
