<svg xmlns="http://www.w3.org/2000/svg" viewBox="0 0 100 100">
  <linearGradient id="tanstack-query_svg__a" x1="50" x2="50" y1="976.511" y2="1080.623" gradientTransform="translate(0 -978.567)" gradientUnits="userSpaceOnUse">
    <stop offset="0" stop-color="#6bdaff"/>
    <stop offset=".319" stop-color="#f9ffb5"/>
    <stop offset=".706" stop-color="#ffa770"/>
    <stop offset="1" stop-color="#ff7373"/>
  </linearGradient>
  <path fill="url(#tanstack-query_svg__a)" d="M100 50c0 27.6-22.4 50-50 50S0 77.6 0 50 22.4 0 50 0s50 22.4 50 50"/>
  <path fill="#015064" d="M48.1 100c0-22.7-21.6-35.8-44.5-31.2 7.3 17.7 24.3 30.4 44.5 31.2m48.3-31.3c-20-4.8-44.2 7.2-44.2 31.2 20.1-.8 37-13.5 44.2-31.2"/>
  <path fill="#00cfe2" d="M2.9 66.9c.5 1.3 1 2.6 1.6 3.8 19.4-4.3 41.5 7 41.5 29.1 1.5.1 2.6.2 4.1.2 0-26-26.1-38.4-47.2-33.1m47.3 33c1.4 0 2.7-.1 4.1-.2 0-21.5 21-33.2 41.2-29.2.6-1.3 1.1-2.5 1.6-3.9-24.5-4-46.9 8.9-46.9 33.3"/>
  <path fill="#00a8b8" d="M5.4 72.7c.7 1.3 1.4 2.6 2.2 3.8 20.3-2.4 35.3 9.4 38.1 23.3 1.4.1 2.8.2 4.2.2-3.3-19.6-25.5-31.3-44.5-27.3M50.5 100c1.4 0 2.8-.1 4.2-.2 3-14.6 18.9-25.7 37.7-23.4.8-1.2 1.5-2.5 2.2-3.8-20.2-3.5-41 8.5-44.1 27.4"/>
  <path fill="#007782" d="M8.6 78.1q1.35 2.1 3 3.9c15.9 0 27 7.7 31.9 17.6 1.6.2 3.1.3 4.7.4-5.1-13-19.7-23.3-39.6-21.9m78.9-.2c-16.2 0-30.3 9.1-35.3 22.1 1.6-.1 3.1-.2 4.7-.4C61.6 89.8 72.6 82 88.4 82c1.1-1.3 2-2.6 3-3.9-1.3-.2-2.6-.2-3.9-.2"/>
  <path d="m45.1 53.9-1.8 10.2c-.1.5.3 1 .8 1 1.2.2 1-.6 2.8-10.9 0-.4-1.8-1.3-1.8-.3M69 64.1c-.7 4.3-1.3 5.6-.1 5.8.2 0 1.1 0 1.1-.8l.8-4.7c0-1.3-1.8-1.3-1.8-.3m-15.9-3.8c1.2.2.6 1.4-.1 5.4-.2 1-1.8 1.2-1.8-.3.7-4.1.6-5.4 1.9-5.1"/>
  <linearGradient id="tanstack-query_svg__b" x1="-2241.899" x2="-4.623" y1="-127.378" y2="1005.637" gradientTransform="translate(0 -978.567)" gradientUnits="userSpaceOnUse">
    <stop offset="0" stop-color="#ee2700"/>
    <stop offset="1" stop-color="#ff008e"/>
  </linearGradient>
  <path fill="url(#tanstack-query_svg__b)" d="m54.7 57.6 16.1 2.8c1.8.6 1.6 3.4-.6 3.6l-17.5-3-9.5-9.7c-1.1-1.8.7-3.2 2.3-2.4z"/>
  <path fill="#fff" d="M48.3 51.4c.5-.5 1.3.3.8.8l-.7.6c-.5.5-1.3-.3-.8-.8zm3.4 3.3c-.4.3-1.3.9-.8 1.4s.9 0 1.5-.5c.3-.3-.3-1.3-.7-.9m17.1 4.8c-.6 0-.6.4-.8 1.6 0 .9 1.1.7 1.1.1l.1-1.1c.1-.2-.1-.5-.4-.6m-6.1-.3c-.1.9-.3 1.7.4 1.7s.6-.6.7-1.6c.1-.3-1.1-.8-1.1-.1m-4.8-1.4c.3 0 .5.3.5.6-.1.8 0 1.5-.8 1.5-.3-.1-.5-.3-.5-.6.2-1.1.2-1.5.8-1.5"/>
  <linearGradient id="tanstack-query_svg__c" x1="25.136" x2="1636.581" y1="1012.144" y2="4316.093" gradientTransform="translate(0 -978.567)" gradientUnits="userSpaceOnUse">
    <stop offset="0" stop-color="#a17500"/>
    <stop offset="1" stop-color="#5d2100"/>
  </linearGradient>
  <path fill="url(#tanstack-query_svg__c)" d="M29.7 31.3c3.8 18 3.8 27.4 2.4 37.5l10.1-2.7c-5.9-22.8-2.9-11.8-8.3-35.5z"/>
  <linearGradient id="tanstack-query_svg__d" x1="29.921" x2="17.338" y1="1006.188" y2="1003.639" gradientTransform="translate(0 -978.567)" gradientUnits="userSpaceOnUse">
    <stop offset="0" stop-color="#2f8a00"/>
    <stop offset="1" stop-color="#90ff57"/>
  </linearGradient>
  <path fill="url(#tanstack-query_svg__d)" d="M30.2 28.2s-2.1-3.6-6-4.9c-2.6-.9-5.7-.2-9.1 1.8 2.6 2.3 4.8 3.7 6.7 4.1 2.7.6 8.4-1 8.4-1"/>
  <linearGradient id="tanstack-query_svg__e" x1="27.204" x2="10.17" y1="1005.033" y2="1021.079" gradientTransform="translate(0 -978.567)" gradientUnits="userSpaceOnUse">
    <stop offset="0" stop-color="#2f8a00"/>
    <stop offset="1" stop-color="#90ff57"/>
  </linearGradient>
  <path fill="url(#tanstack-query_svg__e)" d="M30.2 28.3s-7.8-1.4-13.7 2.6c-3.9 2.7-5.6 8.1-5.2 16.3C28 31.8 30.2 27.8 30.2 28.3"/>
  <linearGradient id="tanstack-query_svg__f" x1="30.076" x2="39.944" y1="1006.249" y2="996.545" gradientTransform="translate(0 -978.567)" gradientUnits="userSpaceOnUse">
    <stop offset="0" stop-color="#2f8a00"/>
    <stop offset="1" stop-color="#90ff57"/>
  </linearGradient>
  <path fill="url(#tanstack-query_svg__f)" d="M30.2 28.2c-.1-3.6 1-6.2 3.4-7.9s4.9-2.5 7.5-2.5c-1.6 5.8-3.5 7.6-10.9 10.4"/>
  <linearGradient id="tanstack-query_svg__g" x1="31.267" x2="54.951" y1="1003.284" y2="1007.972" gradientTransform="translate(0 -978.567)" gradientUnits="userSpaceOnUse">
    <stop offset="0" stop-color="#2f8a00"/>
    <stop offset="1" stop-color="#90ff57"/>
  </linearGradient>
  <path fill="url(#tanstack-query_svg__g)" d="M30.2 28.3q7.8-7.35 15.9-4.8c5.4 1.8 8.4 5 9 9.7-14.6-2.3-15.5-2.4-24.9-4.9"/>
  <linearGradient id="tanstack-query_svg__h" x1="31.45" x2="52.42" y1="1005.481" y2="1022.668" gradientTransform="translate(0 -978.567)" gradientUnits="userSpaceOnUse">
    <stop offset="0" stop-color="#2f8a00"/>
    <stop offset="1" stop-color="#90ff57"/>
  </linearGradient>
  <path fill="url(#tanstack-query_svg__h)" d="M30.2 28.3q8.85-1.8 14.7 3.6c3.9 3.7 6.2 8.1 7 13.2-9.5-2.3-14.5-5.3-21.7-16.8"/>
  <linearGradient id="tanstack-query_svg__i" x1="28.134" x2="20.898" y1="1008.361" y2="1031.222" gradientTransform="translate(0 -978.567)" gradientUnits="userSpaceOnUse">
    <stop offset="0" stop-color="#2f8a00"/>
    <stop offset="1" stop-color="#90ff57"/>
  </linearGradient>
  <path fill="url(#tanstack-query_svg__i)" d="M30.2 28.3C18.9 33 17.8 43.9 21.7 55.5c8-11.7 9-14.7 8.5-27.2"/>
  <path fill="#2f8a00" d="M56.3 34.5c-.8-6-3.2-9.8-9.9-12-1.9-.6-3.8-.9-5.7-.7.8-1.6 1.3-3.4 1.8-5.1-6.2 0-12 2.5-13.2 8.6-5.1-5.1-10.1-4.1-16.1-.4 1.5 1.4 3.1 2.8 4.8 3.8-8.1 4-8.3 11.6-7.7 20.7 2.8-2.6 5.7-5.2 8.4-7.8-.6 5.6.8 10.9 2.6 16.2 7.6-11 10-13.5 10-25.9 6.9 9.8 10.4 11.6 21.7 14.6-.7-5-2.3-9.5-5.6-13.4 3 .5 6 .9 8.9 1.4m-39.4-9.2c4.8-2.5 7.9-1.3 11 1.8-2 0-4.5-.1-7.2.8-1-.6-2.3-1.4-3.8-2.6m-4.6 19.5c0-8.8 2.6-14.3 11.3-15.5-3.7 1.7-7.2 5.7-8.7 8.6-.4.5.6 1.5 1.2.6 1.5-3 5.2-6.8 8.3-8.1-2.5 2-4.1 4.6-4.9 7.7-1.9 1.8-4.3 4-7.2 6.7m9.8 8.3c-2.4-8.7-2-17.8 5.9-22.4-2.5 4.2-4.4 9.6-5.1 14.4-.2.7 1 1.3 1.3.3.8-4.9 2.4-9.9 5-14.1.2 9.3-.9 12.3-7.1 21.8M53.7 32c-3.7-.6-6.6-1-8.8-1.4-2.6-2.2-5.6-3.4-8.9-3.7 4.3-.6 8.9-.3 12.2 2.5.8.6 1.4-.6.8-1-2.7-2.2-7-3.7-13.4-2.6 7.7-4.6 16.5.1 18.1 6.2M34.2 21.1c1.8-1.2 3.6-2 5.4-2.2-.5 1.4-1.1 2.5-1.7 3.4-2.2.6-4.4 1.8-6.5 3.5.3-2.1 1.3-3.6 2.8-4.7m16.2 22.6c-8.9-2.4-12.4-5.6-18.2-14.2 4 2.1 9.5 5.8 12.3 9.3.4.6 1.6 0 1-.8-2.4-3.2-8-7.2-11.5-9.1 4-.1 7.3 1.2 10.1 3.8 3.3 3.1 5.4 6.7 6.3 11"/>
  <linearGradient id="tanstack-query_svg__j" x1="62.284" x2="39.406" y1="1044.414" y2="1080.73" gradientTransform="translate(0 -978.567)" gradientUnits="userSpaceOnUse">
    <stop offset="0" stop-color="#fff400"/>
    <stop offset="1" stop-color="#3c8700"/>
  </linearGradient>
  <path fill="url(#tanstack-query_svg__j)" d="M85.6 85.1c-19.8 20-51.8 19.7-71 .2 17.2-28.8 53.5-29 71-.2"/>
  <linearGradient id="tanstack-query_svg__k" x1="84.236" x2="84.236" y1="972.59" y2="4698.01" gradientTransform="translate(0 -978.567)" gradientUnits="userSpaceOnUse">
    <stop offset="0" stop-color="#ffdf00"/>
    <stop offset="1" stop-color="#ff9d00"/>
  </linearGradient>
  <path fill="url(#tanstack-query_svg__k)" d="M96.1 30.7C80.2 34.7 68.4 19.5 73.6 6c10.2 5.4 18.1 14.1 22.5 24.7"/>
  <linearGradient id="tanstack-query_svg__l" x1="82.858" x2="69.483" y1="1022.121" y2="981.41" gradientTransform="translate(0 -978.567)" gradientUnits="userSpaceOnUse">
    <stop offset="0" stop-color="#ffa400"/>
    <stop offset="1" stop-color="#ff5e00"/>
  </linearGradient>
  <path fill="url(#tanstack-query_svg__l)" d="M64.8 5.2c-1.3-.3-1.8 1.5-.4 2l4.3.8c1.4.3 1.7-1.8.4-2zm-1.4 6.4c-1.3 0-1.3 2 0 2h4.9c1.3 0 1.3-2 0-2zm5.8 7.3-4.8 1.3c-1.4.3-1.6-1.7-.5-1.9l4.8-1.3c1.5-.2 1.6 1.7.5 1.9m2.1 5.1c1.3-.8-.1-2.3-.9-1.7l-3.9 2.1c-1 .6-.4 2.2.9 1.7zm3.8 4.3-3.3 3.1c-.8.8-2.3-.3-1.4-1.5l3.3-3.1c1-.8 2.3.6 1.4 1.5m4.7 3.5c.6-1-.9-2-1.7-1l-2.3 3.8c-.6 1 .9 2 1.7 1zm5.6 2.5-1.2 4c-.5 1.3-2.2.5-1.8-.6l1.2-4c0-1.1 2.1-.7 1.8.6m6.5 1.2c0-1.2-1.9-1.2-1.9.1l.1 4c0 .5.5 1 1 1s1-.5 1-1z"/>
</svg>
